<?xml version="1.0" encoding="utf-8"?>
<!-- Generator: Adobe Illustrator 24.3.0, SVG Export Plug-In . SVG Version: 6.00 Build 0)  -->
<svg version="1.1" id="Lager_1" xmlns="http://www.w3.org/2000/svg" xmlns:xlink="http://www.w3.org/1999/xlink" x="0px" y="0px"
	 viewBox="0 0 2508.79 35" style="enable-background:new 0 0 2508.79 35;" xml:space="preserve">
<style type="text/css">
	.st0{fill:#E3C7DE;}
</style>
<g>
	<circle class="st0" cx="17.41" cy="17.49" r="17.41"/>
	<circle class="st0" cx="52.24" cy="17.49" r="17.41"/>
	
		<ellipse transform="matrix(0.9732 -0.2298 0.2298 0.9732 -1.6903 20.4703)" class="st0" cx="87.06" cy="17.49" rx="17.41" ry="17.41"/>
	<circle class="st0" cx="121.88" cy="17.49" r="17.41"/>
	
		<ellipse transform="matrix(0.9732 -0.2298 0.2298 0.9732 0.1729 36.4722)" class="st0" cx="156.71" cy="17.49" rx="17.41" ry="17.41"/>
	<circle class="st0" cx="191.53" cy="17.49" r="17.41"/>
	
		<ellipse transform="matrix(0.9732 -0.2298 0.2298 0.9732 2.0361 52.4741)" class="st0" cx="226.36" cy="17.49" rx="17.41" ry="17.41"/>
	<circle class="st0" cx="261.18" cy="17.49" r="17.41"/>
	
		<ellipse transform="matrix(0.7071 -0.7071 0.7071 0.7071 74.3279 214.4306)" class="st0" cx="296" cy="17.49" rx="17.41" ry="17.41"/>
	
		<ellipse transform="matrix(0.7071 -0.7071 0.7071 0.7071 84.6454 239.3394)" class="st0" cx="331.23" cy="17.49" rx="17.41" ry="17.41"/>
	<circle class="st0" cx="366.05" cy="17.49" r="17.41"/>
	<circle class="st0" cx="400.88" cy="17.49" r="17.41"/>
	
		<ellipse transform="matrix(0.9732 -0.2298 0.2298 0.9732 7.6363 100.5722)" class="st0" cx="435.7" cy="17.49" rx="17.41" ry="17.41"/>
	<circle class="st0" cx="470.53" cy="17.49" r="17.41"/>
	<circle class="st0" cx="505.35" cy="17.49" r="17.41"/>
	<circle class="st0" cx="540.18" cy="17.49" r="17.41"/>
	<circle class="st0" cx="575" cy="17.49" r="17.41"/>
	
		<ellipse transform="matrix(0.9571 -0.2898 0.2898 0.9571 21.097 177.468)" class="st0" cx="609.82" cy="17.49" rx="17.41" ry="17.41"/>
	
		<ellipse transform="matrix(0.8507 -0.5257 0.5257 0.8507 87.0803 341.5234)" class="st0" cx="644.65" cy="17.49" rx="17.41" ry="17.41"/>
	<circle class="st0" cx="679.47" cy="17.49" r="17.41"/>
	
		<ellipse transform="matrix(0.9571 -0.2898 0.2898 0.9571 25.5797 207.7424)" class="st0" cx="714.3" cy="17.49" rx="17.41" ry="17.41"/>
	
		<ellipse transform="matrix(0.8507 -0.5257 0.5257 0.8507 102.6831 396.4476)" class="st0" cx="749.12" cy="17.49" rx="17.41" ry="17.41"/>
	
		<ellipse transform="matrix(0.9571 -0.2898 0.2898 0.9571 28.5681 227.9254)" class="st0" cx="783.94" cy="17.49" rx="17.41" ry="17.41"/>
	
		<ellipse transform="matrix(0.8507 -0.5257 0.5257 0.8507 113.085 433.0638)" class="st0" cx="818.77" cy="17.49" rx="17.41" ry="17.41"/>
	<circle class="st0" cx="853.59" cy="17.49" r="17.41"/>
	
		<ellipse transform="matrix(0.9571 -0.2898 0.2898 0.9571 33.0508 258.1998)" class="st0" cx="888.42" cy="17.49" rx="17.41" ry="17.41"/>
	
		<ellipse transform="matrix(0.8507 -0.5257 0.5257 0.8507 128.6878 487.988)" class="st0" cx="923.24" cy="17.49" rx="17.41" ry="17.41"/>
	<circle class="st0" cx="958.39" cy="17.49" r="17.41"/>
	
		<ellipse transform="matrix(0.9571 -0.2898 0.2898 0.9571 37.5476 288.5693)" class="st0" cx="993.22" cy="17.49" rx="17.41" ry="17.41"/>
	
		<ellipse transform="matrix(0.8507 -0.5257 0.5257 0.8507 144.3396 543.0847)" class="st0" cx="1028.04" cy="17.49" rx="17.41" ry="17.41"/>
	<circle class="st0" cx="1062.86" cy="17.49" r="17.41"/>
	<circle class="st0" cx="1097.69" cy="17.49" r="17.41"/>
	<circle class="st0" cx="1132.51" cy="17.49" r="17.41"/>
	
		<ellipse transform="matrix(0.9571 -0.2898 0.2898 0.9571 45.0188 339.0266)" class="st0" cx="1167.34" cy="17.49" rx="17.41" ry="17.41"/>
	
		<ellipse transform="matrix(0.8507 -0.5257 0.5257 0.8507 170.3442 634.625)" class="st0" cx="1202.16" cy="17.49" rx="17.41" ry="17.41"/>
	<circle class="st0" cx="1236.98" cy="17.49" r="17.41"/>
	
		<ellipse transform="matrix(0.9571 -0.2898 0.2898 0.9571 49.5015 369.3011)" class="st0" cx="1271.81" cy="17.49" rx="17.41" ry="17.41"/>
	
		<ellipse transform="matrix(0.8507 -0.5257 0.5257 0.8507 185.947 689.5492)" class="st0" cx="1306.63" cy="17.49" rx="17.41" ry="17.41"/>
	
		<ellipse transform="matrix(0.9571 -0.2898 0.2898 0.9571 52.4899 389.484)" class="st0" cx="1341.46" cy="17.49" rx="17.41" ry="17.41"/>
	
		<ellipse transform="matrix(0.8507 -0.5257 0.5257 0.8507 196.3489 726.1654)" class="st0" cx="1376.28" cy="17.49" rx="17.41" ry="17.41"/>
	<circle class="st0" cx="1411.11" cy="17.49" r="17.41"/>
	
		<ellipse transform="matrix(0.9571 -0.2898 0.2898 0.9571 56.9726 419.7585)" class="st0" cx="1445.93" cy="17.49" rx="17.41" ry="17.41"/>
	
		<ellipse transform="matrix(0.8507 -0.5257 0.5257 0.8507 211.9517 781.0895)" class="st0" cx="1480.75" cy="17.49" rx="17.41" ry="17.41"/>
	<path class="st0" d="M1515.58,0.08c-9.62,0-17.41,7.8-17.41,17.41s7.8,17.41,17.41,17.41c9.62,0,17.41-7.8,17.41-17.41
		S1525.19,0.08,1515.58,0.08z"/>
	<circle class="st0" cx="1550.4" cy="17.49" r="17.41"/>
	<circle class="st0" cx="1585.63" cy="17.49" r="17.41"/>
	<path class="st0" d="M1620.45,0.08c-9.62,0-17.41,7.8-17.41,17.41s7.8,17.41,17.41,17.41s17.41-7.8,17.41-17.41
		S1630.07,0.08,1620.45,0.08z"/>
	<path class="st0" d="M1655.28,0.08c-9.62,0-17.41,7.8-17.41,17.41s7.8,17.41,17.41,17.41c9.62,0,17.41-7.8,17.41-17.41
		S1664.89,0.08,1655.28,0.08z"/>
	<circle class="st0" cx="1690.1" cy="17.49" r="17.41"/>
	<path class="st0" d="M1724.92,0.08c-9.62,0-17.41,7.8-17.41,17.41s7.8,17.41,17.41,17.41s17.41-7.8,17.41-17.41
		S1734.54,0.08,1724.92,0.08z"/>
	<path class="st0" d="M1759.75,0.08c-9.62,0-17.41,7.8-17.41,17.41s7.8,17.41,17.41,17.41s17.41-7.8,17.41-17.41
		S1769.36,0.08,1759.75,0.08z"/>
	<circle class="st0" cx="1794.57" cy="17.49" r="17.41"/>
	<path class="st0" d="M1829.4,0.08c-9.62,0-17.41,7.8-17.41,17.41s7.8,17.41,17.41,17.41c9.62,0,17.41-7.8,17.41-17.41
		S1839.01,0.08,1829.4,0.08z"/>
	<path class="st0" d="M1864.22,0.08c-9.62,0-17.41,7.8-17.41,17.41s7.8,17.41,17.41,17.41s17.41-7.8,17.41-17.41
		S1873.84,0.08,1864.22,0.08z"/>
	<circle class="st0" cx="1899.04" cy="17.49" r="17.41"/>
	<path class="st0" d="M1933.87,0.08c-9.62,0-17.41,7.8-17.41,17.41s7.8,17.41,17.41,17.41c9.62,0,17.41-7.8,17.41-17.41
		S1943.48,0.08,1933.87,0.08z"/>
	<circle class="st0" cx="1968.69" cy="17.49" r="17.41"/>
	<path class="st0" d="M2003.52,0.08c-9.62,0-17.41,7.8-17.41,17.41s7.8,17.41,17.41,17.41c9.62,0,17.41-7.8,17.41-17.41
		S2013.13,0.08,2003.52,0.08z"/>
	<circle class="st0" cx="2038.34" cy="17.49" r="17.41"/>
	<path class="st0" d="M2073.16,0.08c-9.62,0-17.41,7.8-17.41,17.41s7.8,17.41,17.41,17.41s17.41-7.8,17.41-17.41
		S2082.78,0.08,2073.16,0.08z"/>
	<path class="st0" d="M2107.99,0.08c-9.62,0-17.41,7.8-17.41,17.41s7.8,17.41,17.41,17.41c9.62,0,17.41-7.8,17.41-17.41
		S2117.6,0.08,2107.99,0.08z"/>
	<circle class="st0" cx="2142.81" cy="17.49" r="17.41"/>
	<path class="st0" d="M2177.64,0.08c-9.62,0-17.41,7.8-17.41,17.41s7.8,17.41,17.41,17.41s17.41-7.8,17.41-17.41
		S2187.25,0.08,2177.64,0.08z"/>
	<path class="st0" d="M2212.79,0.08c-9.62,0-17.41,7.8-17.41,17.41s7.8,17.41,17.41,17.41c9.62,0,17.41-7.8,17.41-17.41
		S2222.41,0.08,2212.79,0.08z"/>
	<circle class="st0" cx="2247.61" cy="17.49" r="17.41"/>
	<path class="st0" d="M2282.44,0.08c-9.62,0-17.41,7.8-17.41,17.41s7.8,17.41,17.41,17.41s17.41-7.8,17.41-17.41
		S2292.05,0.08,2282.44,0.08z"/>
	<path class="st0" d="M2317.26,0.08c-9.62,0-17.41,7.8-17.41,17.41s7.8,17.41,17.41,17.41s17.41-7.8,17.41-17.41
		S2326.88,0.08,2317.26,0.08z"/>
	<circle class="st0" cx="2352.09" cy="17.49" r="17.41"/>
	<path class="st0" d="M2386.91,0.08c-9.62,0-17.41,7.8-17.41,17.41s7.8,17.41,17.41,17.41c9.62,0,17.41-7.8,17.41-17.41
		S2396.53,0.08,2386.91,0.08z"/>
	<path class="st0" d="M2421.73,0.08c-9.62,0-17.41,7.8-17.41,17.41s7.8,17.41,17.41,17.41s17.41-7.8,17.41-17.41
		S2431.35,0.08,2421.73,0.08z"/>
	<circle class="st0" cx="2456.56" cy="17.49" r="17.41"/>
	<path class="st0" d="M2491.38,0.08c-9.62,0-17.41,7.8-17.41,17.41s7.8,17.41,17.41,17.41c9.62,0,17.41-7.8,17.41-17.41
		S2501,0.08,2491.38,0.08z"/>
</g>
</svg>
