<?xml version="1.0" encoding="utf-8"?>
<!-- Generator: Adobe Illustrator 24.3.0, SVG Export Plug-In . SVG Version: 6.00 Build 0)  -->
<svg version="1.1" id="Lager_1" xmlns="http://www.w3.org/2000/svg" xmlns:xlink="http://www.w3.org/1999/xlink" x="0px" y="0px"
	 viewBox="0 0 335 318" style="enable-background:new 0 0 335 318;" xml:space="preserve">
<g>
	<path fill="#663433" d="M28.32,173.89c0.77,1.76,1.36,4.05,1.13,7.09c-0.37,4.94-2.31,7.81-4.75,10c-3.4,3.01-7.03,4.01-11.21,3.69
		c-5.16-0.39-8.7-2.78-10.78-5.36c-2.47-3.03-3.27-6.62-2.97-10.63c0.15-1.98,0.67-4.32,2.27-6.79l6.48,0.49
		c-3.18,2.35-3.64,5.54-3.71,6.55c-0.43,5.66,3.98,9.68,9.22,10.08c6.31,0.48,10.08-4.07,10.44-8.8c0.2-2.62-0.78-5.03-2.61-6.82
		L28.32,173.89z"/>
	<path fill="#663433" d="M42.64,108.63L37.95,119l4.42,4.74l-2.46,5.44l-20.97-22.81l1.78-3.93l30.83,0.97l-2.44,5.4L42.64,108.63z M37.85,108.23
		l-11-0.56l7.69,7.89L37.85,108.23z"/>
	<path fill="#663433" d="M72.85,49.92l-0.12-15.9l5.23-4.57l-0.32,17.76l19.56,3.28l-5.48,4.79l-15.96-3.02l-0.06,0.9l7.99,9.14l-4.14,3.62
		L60.78,44.47l4.14-3.62L72.85,49.92z"/>
	<path fill="#663433" d="M150.11,4.98l-9.99,1.86l1.16,6.26l9.57-1.78l0.88,4.71l-9.57,1.78l1.42,7.65l9.99-1.86l0.88,4.71l-15.4,2.86l-5.21-28.03
		l15.4-2.86L150.11,4.98z"/>
	<path fill="#663433" d="M222.89,17.92c-0.71-2.68-2.43-3.6-3.38-3.98c-2.75-1.1-4.31,0.3-4.85,1.65c-0.25,0.63-0.3,1.31,0.11,2.12
		c0.39,0.85,1.13,1.51,2.54,2.77c1.76,1.53,3.4,3.02,4.24,4.78c0.75,1.54,1.09,3.75,0.01,6.45c-2.07,5.16-7.18,7.21-12.6,5.04
		c-4.83-1.94-6.47-6.04-7.03-8.62l4.63-1.88c0.22,3.08,2.24,4.99,4.09,5.73c2.32,0.93,4.62,0.19,5.51-2.03
		c0.38-0.95,0.37-1.83-0.07-2.79c-0.62-1.31-1.98-2.45-3.27-3.56c-1.18-1.03-2.58-2.32-3.44-4.05c-0.56-1.1-1.19-3.06-0.11-5.75
		c1.56-3.89,5.71-6.74,11.52-4.41c1.65,0.66,4.63,2.22,6.19,6.07L222.89,17.92z"/>
	<path fill="#663433" d="M315.75,108.78c0.6,1.45,1.78,4.26,1,7.06c-0.55,2.02-2.23,3.77-4.43,4.69c-3.39,1.41-5.7-0.24-6.39-0.78
		c0.44,1.83,0.11,3.16-0.24,4.09c-0.85,2.19-2.77,3.35-4.15,3.93c-1.54,0.64-3.89,1.12-6.25-0.01c-2.55-1.23-3.94-3.45-4.88-5.71
		l-3.65-8.75l26.31-10.96L315.75,108.78z M293.06,116.63l0.91,2.19c0.39,0.94,1.02,2.33,2.16,3.18c1.27,0.94,2.68,0.76,3.71,0.34
		c0.83-0.35,2.13-1.21,2.2-3.16c0.06-1.31-0.48-2.6-0.94-3.69l-0.78-1.88L293.06,116.63z M304.26,111.96l0.6,1.45
		c0.33,0.78,1.72,3.91,5.08,2.52c2.41-1,2.55-3.22,1.69-5.29l-0.62-1.48L304.26,111.96z"/>
	<path fill="#663433" d="M318.04,182.27l14.75-10.76l0.46,6.5l-9.47,6.73l10.32,5.34l0.46,6.5l-16.13-8.83l-13,0.92l-0.39-5.49L318.04,182.27z"/>
</g>
<g>
	<path fill="#663433" d="M14.2,267.58c6.9,0,10.42,1.8,12.75,3.75c3.82,3.23,4.95,7.5,4.95,11.25c0,4.88-1.95,9.15-5.85,11.77
		c-1.28,0.9-3.08,1.72-5.48,2.17l15.6,21.07H24.02l-13.35-20.1h-1.2v20.1h-9.75v-50.02H14.2z M9.47,290.6h2.77
		c1.88,0,9.6-0.22,9.6-7.57c0-7.42-7.65-7.5-9.45-7.5H9.47V290.6z"/>
	<path fill="#663433" d="M118.67,292.63c0,15.22-10.95,26.1-26.7,26.1c-15.75,0-26.7-10.88-26.7-26.1c0-15.22,10.95-26.17,26.7-26.17
		C107.72,266.46,118.67,277.41,118.67,292.63z M108.62,292.63c0-10.13-6.9-17.32-16.65-17.32c-9.75,0-16.65,7.2-16.65,17.32
		c0,10.12,6.9,17.25,16.65,17.25C101.72,309.88,108.62,302.75,108.62,292.63z"/>
	<path fill="#663433" d="M152.57,317.6v-50.02h6.75l30.45,33.37v-33.37h9.75v50.02h-6.75l-30.45-33.45v33.45H152.57z"/>
	<path fill="#663433" d="M253.67,267.58v33.75c0,4.42-0.3,11.4-5.85,15.15c-2.18,1.42-5.17,2.25-8.17,2.25c-3.6,0-7.88-1.2-11.47-4.65l5.92-7.13
		c0.97,1.42,2.55,2.7,4.88,2.7c2.1,0,3.3-0.9,3.82-1.73c1.2-1.72,1.13-5.02,1.13-8.1v-32.25H253.67z"/>
	<path fill="#663433" d="M319.59,307.1h-20.17L295,317.6h-10.57l21.52-50.02h7.65l20.92,50.02h-10.5L319.59,307.1z M316.75,299.15l-7.13-18
		l-7.12,18H316.75z"/>
</g>
<g>
	<path fill="#663433" d="M251.9,194.29c-1.74-3.16-4.45-8.05-4.92-8.9c-0.05-0.08-0.08-0.14-0.08-0.14l-41.28-75.05h-77.02l-41.28,75.05
		c0,0-0.03,0.06-0.08,0.14c-0.47,0.84-3.17,5.74-4.92,8.9c-3.65,6.6-1.48,15.05,4.84,18.86c5.7,3.44,12.83,1.92,16.85-3.26
		c-1.21,6.55,2.25,13.23,8.44,15.58c6.19,2.35,12.95-0.44,16.05-6.27c-0.11,6.67,4.42,12.62,10.9,13.81
		c6.49,1.19,12.69-2.78,14.77-9.09c1,6.55,6.39,11.57,12.93,11.62c6.54-0.05,11.93-5.07,12.93-11.62c2.08,6.3,8.28,10.28,14.77,9.09
		c6.49-1.19,11.01-7.15,10.9-13.81c3.1,5.83,9.86,8.62,16.05,6.27c6.19-2.35,9.66-9.04,8.44-15.58c4.02,5.18,11.15,6.7,16.85,3.26
		C253.38,209.34,255.55,200.89,251.9,194.29z M96.35,203.69c-0.94,1.71-3.03,2.29-4.66,1.31c-1.63-0.98-2.19-3.17-1.25-4.87
		c0.94-1.71,3.03-2.29,4.66-1.31C96.73,199.8,97.29,201.98,96.35,203.69z M119.93,214.49c-0.64,1.85-2.6,2.8-4.37,2.13
		c-1.77-0.67-2.68-2.72-2.04-4.57c0.64-1.85,2.6-2.8,4.37-2.13C119.66,210.59,120.57,212.64,119.93,214.49z M144.95,220.85
		c-0.33,1.94-2.1,3.23-3.95,2.89c-1.86-0.34-3.1-2.19-2.77-4.13c0.33-1.94,2.1-3.23,3.95-2.89
		C144.03,217.06,145.27,218.91,144.95,220.85z M167.12,226.13c-1.84-0.06-3.31-1.62-3.31-3.55c0-1.93,1.47-3.5,3.31-3.55
		c1.84,0.06,3.31,1.62,3.31,3.55C170.43,224.51,168.96,226.07,167.12,226.13z M193.25,223.74c-1.86,0.34-3.63-0.95-3.95-2.89
		c-0.33-1.94,0.91-3.79,2.77-4.13c1.86-0.34,3.63,0.95,3.95,2.89C196.35,221.55,195.11,223.4,193.25,223.74z M218.69,216.62
		c-1.77,0.67-3.73-0.28-4.37-2.13c-0.64-1.85,0.27-3.9,2.04-4.57s3.73,0.28,4.37,2.13C221.37,213.9,220.46,215.95,218.69,216.62z
		 M242.56,204.99c-1.63,0.98-3.72,0.4-4.66-1.31c-0.94-1.71-0.38-3.89,1.25-4.87c1.63-0.98,3.72-0.4,4.66,1.31
		C244.75,201.83,244.19,204.01,242.56,204.99z"/>
	<g>
		<polygon fill="#663433" points="183.99,70.86 175.56,86.18 167.12,70.86 158.69,86.18 150.25,70.86 132.54,103.03 201.7,103.03 		"/>
	</g>
</g>
</svg>
